<mxfile host="app.diagrams.net" modified="2024-02-10T15:31:33.116Z" agent="Mozilla/5.0 (Windows NT 10.0; Win64; x64) AppleWebKit/537.36 (KHTML, like Gecko) Chrome/121.0.0.0 Safari/537.36" version="23.1.2" etag="P5zU-VJPn3B-u0m4jk5d" type="github">
  <diagram name="Page-1" id="-F_ttsLyoopKvlrMMBva">
    <mxGraphModel>
      <root>
        <mxCell id="0" />
        <mxCell id="1" parent="0" />
      </root>
    </mxGraphModel>
  </diagram>
</mxfile>
